<svg width="125" height="39" viewBox="0 0 125 39" fill="none" xmlns="http://www.w3.org/2000/svg">
<path d="M34.5101 13.4592C27.1745 10.7479 15.8476 12.5916 12.5035 20.5086C10.7775 24.5213 11.9641 28.9678 14.661 32.3298C17.3579 35.5834 21.7808 38.9454 26.0958 38.7285C31.1659 39.5961 36.6676 37.4271 40.0117 33.1975C45.5134 26.1481 42.8165 16.3874 34.5101 13.4592Z" fill="#267EF9"/>
<path d="M8.94253 11.5064C7.86378 9.98812 5.92202 9.01206 4.08814 9.12051C2.36213 9.22896 1.06763 10.4219 0.851877 11.9403C0.420375 12.4825 0.3125 13.1332 0.3125 13.7839C0.3125 15.953 2.03851 17.9051 3.98026 18.7727C8.40316 20.508 11.5315 14.9769 8.94253 11.5064Z" fill="#267EF9"/>
<path d="M30.4114 3.91463C30.3036 1.9625 28.6854 0.552622 26.8516 0.118815C25.2334 -0.206541 23.1838 0.118815 21.9972 1.31179C20.4869 2.61321 20.379 4.67379 21.6735 6.19212C24.1547 9.12032 30.6272 8.68651 30.4114 3.91463Z" fill="#267EF9"/>
<path d="M45.1883 7.05919C44.1096 5.86622 42.4914 5.21551 40.8733 5.75777C39.2552 6.30003 38.2843 7.9268 38.7158 9.66203V9.77049C38.7158 10.0958 38.8237 10.5296 39.0394 10.855C39.6867 12.1564 41.4127 13.4578 42.8151 13.7832C44.4332 14.1086 46.2671 13.3494 46.8064 11.7226C47.4537 10.0958 46.3749 8.25216 45.1883 7.05919Z" fill="#267EF9"/>
<path d="M60.1484 12.2189V32.0008H63.5871V18.3814H63.7706L69.2376 31.9428H71.807L77.274 18.4104H77.4575V32.0008H80.8962V12.2189H76.5109L70.6382 26.553H70.4064L64.5337 12.2189H60.1484Z" fill="#222222"/>
<path d="M93.8281 25.761C93.8281 28.0212 92.2151 29.1417 90.6696 29.1417C88.9889 29.1417 87.8685 27.9536 87.8685 26.0701V17.1644H84.3719V26.611C84.3719 30.1752 86.4003 32.1939 89.3174 32.1939C91.5389 32.1939 93.1037 31.0252 93.7799 29.3638H93.9344V32.0008H97.3247V17.1644H93.8281V25.761Z" fill="#222222"/>
<path d="M108.163 17.1644H105.082V15.9957C105.082 14.8366 105.565 14.1894 106.869 14.1894C107.419 14.1894 107.883 14.315 108.173 14.4019L108.878 11.6974C108.424 11.5428 107.429 11.2917 106.222 11.2917C103.643 11.2917 101.585 12.7695 101.585 15.7638V17.1644H99.3927V19.8689H101.585V32.0008H105.082V19.8689H108.163V17.1644Z" fill="#222222"/>
<path d="M118.144 17.1644H115.063V15.9957C115.063 14.8366 115.546 14.1894 116.85 14.1894C117.4 14.1894 117.864 14.315 118.154 14.4019L118.859 11.6974C118.405 11.5428 117.41 11.2917 116.203 11.2917C113.624 11.2917 111.566 12.7695 111.566 15.7638V17.1644H109.374V19.8689H111.566V32.0008H115.063V19.8689H118.144V17.1644Z" fill="#222222"/>
<path d="M120.611 32.0008H124.107V17.1644H120.611V32.0008ZM122.369 15.0587C123.479 15.0587 124.387 14.2087 124.387 13.1655C124.387 12.1127 123.479 11.2627 122.369 11.2627C121.248 11.2627 120.34 12.1127 120.34 13.1655C120.34 14.2087 121.248 15.0587 122.369 15.0587Z" fill="#222222"/>
</svg>
